<svg width="457" height="141" viewBox="0 0 457 141" fill="none" xmlns="http://www.w3.org/2000/svg">
<rect width="457" height="141" fill="#11111B"/>
<path d="M54.624 58.744C54.624 59.9387 54.624 61.2827 54.624 62.776C54.6667 64.2693 54.688 65.8267 54.688 67.448C54.688 69.0267 54.688 70.6053 54.688 72.184C54.688 73.72 54.6667 75.1493 54.624 76.472C54.5813 77.112 54.5173 77.816 54.432 78.584C54.3467 79.3093 54.176 79.992 53.92 80.632C53.664 81.272 53.2587 81.8053 52.704 82.232C52.192 82.616 51.488 82.7867 50.592 82.744C49.2693 82.6587 48.3093 82.0827 47.712 81.016C47.1573 79.9493 46.8373 78.456 46.752 76.536C46.752 75.5547 46.7307 74.424 46.688 73.144C46.688 71.864 46.6667 70.5627 46.624 69.24C46.624 67.9173 46.624 66.6373 46.624 65.4C46.624 64.12 46.624 62.968 46.624 61.944C46.624 61.3467 46.6027 60.6213 46.56 59.768C46.56 58.9147 46.5813 58.04 46.624 57.144C46.6667 56.248 46.7733 55.3947 46.944 54.584C47.1147 53.7307 47.392 53.0267 47.776 52.472C48.0747 52.1307 48.5013 51.8747 49.056 51.704C49.6107 51.4907 50.1867 51.384 50.784 51.384C51.424 51.384 52.0213 51.4907 52.576 51.704C53.1733 51.9173 53.6 52.216 53.856 52.6C54.0267 52.856 54.1547 53.2187 54.24 53.688C54.3253 54.1573 54.3893 54.6907 54.432 55.288C54.5173 55.8427 54.56 56.44 54.56 57.08C54.6027 57.6773 54.624 58.232 54.624 58.744ZM52.192 45.816C50.8693 46.1573 49.76 46.0293 48.864 45.432C48.0107 44.792 47.4773 43.8533 47.264 42.616C47.0933 41.72 47.1573 40.9307 47.456 40.248C47.7547 39.5653 48.2027 39.0533 48.8 38.712C49.3973 38.328 50.08 38.1573 50.848 38.2C51.616 38.2427 52.384 38.5413 53.152 39.096C53.8773 39.608 54.3893 40.2053 54.688 40.888C55.0293 41.5707 55.136 42.232 55.008 42.872C54.9227 43.512 54.6453 44.1093 54.176 44.664C53.7067 45.176 53.0453 45.56 52.192 45.816ZM60.999 60.152C60.999 59.1707 60.9777 58.1253 60.935 57.016C60.935 55.9067 61.127 54.904 61.511 54.008C61.8523 53.1973 62.407 52.6213 63.175 52.28C63.9857 51.896 64.775 51.8107 65.543 52.024C66.311 52.152 66.9083 52.3867 67.335 52.728C67.7617 53.0693 68.0603 53.4747 68.231 53.944C68.4443 54.3707 68.5723 54.8827 68.615 55.48C68.6577 56.0347 68.7003 56.5893 68.743 57.144C69.1697 56.376 69.703 55.7573 70.343 55.288C70.983 54.8187 71.6443 54.4347 72.327 54.136C73.0097 53.8373 73.6497 53.624 74.247 53.496C74.887 53.368 75.3777 53.304 75.719 53.304C77.3403 53.304 78.9403 53.6667 80.519 54.392C82.1403 55.0747 83.4843 56.056 84.551 57.336C85.1483 58.104 85.5963 58.9147 85.895 59.768C86.2363 60.5787 86.471 61.432 86.599 62.328C86.7697 63.224 86.8763 64.1413 86.919 65.08C86.9617 65.976 87.0043 66.8933 87.047 67.832C87.2603 70.5627 87.2603 73.272 87.047 75.96C87.0043 76.5147 86.983 77.1547 86.983 77.88C86.983 78.6053 86.919 79.3307 86.791 80.056C86.7057 80.7387 86.5137 81.3573 86.215 81.912C85.959 82.424 85.511 82.744 84.871 82.872C83.975 83.0853 83.2283 83.128 82.631 83C82.0763 82.9147 81.6283 82.7227 81.287 82.424C80.9457 82.1253 80.6897 81.7413 80.519 81.272C80.3483 80.8027 80.199 80.2693 80.071 79.672C79.9857 79.2027 79.9003 78.6693 79.815 78.072C79.7723 77.432 79.7297 76.792 79.687 76.152C79.687 75.512 79.6657 74.8933 79.623 74.296C79.623 73.656 79.623 73.08 79.623 72.568C79.623 71.7573 79.6017 70.8613 79.559 69.88C79.5163 68.8987 79.5163 67.9813 79.559 67.128C79.559 65.1227 79.0257 63.608 77.959 62.584C76.935 61.5173 75.527 61.0693 73.735 61.24C72.3697 61.4107 71.175 61.9653 70.151 62.904C69.127 63.8 68.6363 64.9733 68.679 66.424C68.679 66.9787 68.679 67.4907 68.679 67.96C68.679 68.4293 68.6577 68.8987 68.615 69.368C68.615 69.8373 68.615 70.3493 68.615 70.904C68.615 71.4587 68.615 72.0773 68.615 72.76C68.615 74.168 68.615 75.6613 68.615 77.24C68.615 78.776 68.423 80.0347 68.039 81.016C67.6977 82.04 67.1217 82.744 66.311 83.128C65.5003 83.512 64.5403 83.4053 63.431 82.808C62.9617 82.552 62.5777 82.2107 62.279 81.784C62.023 81.3147 61.8097 80.824 61.639 80.312C61.511 79.8 61.4257 79.288 61.383 78.776C61.3403 78.2213 61.2977 77.7093 61.255 77.24C61.127 75.832 61.0417 74.5307 60.999 73.336C60.999 72.0987 60.999 70.776 60.999 69.368V60.152ZM112.341 38.264C113.151 38.0507 113.855 38.0293 114.453 38.2C115.093 38.328 115.626 38.6053 116.053 39.032C116.522 39.4587 116.863 39.992 117.077 40.632C117.333 41.272 117.461 41.976 117.461 42.744C117.503 44.8773 117.503 46.5413 117.461 47.736C117.461 48.9307 117.461 49.976 117.461 50.872V70.52C117.461 72.824 117.461 74.744 117.461 76.28C117.461 77.816 117.375 79.0747 117.205 80.056C117.077 80.9947 116.821 81.6987 116.437 82.168C116.095 82.6373 115.562 82.9573 114.837 83.128C114.111 83.3413 113.151 83.448 111.957 83.448C110.805 83.448 109.354 83.448 107.605 83.448C102.997 83.448 99.3485 82.36 96.6605 80.184C94.0152 78.008 92.6072 74.552 92.4365 69.816C92.3512 67.768 92.6072 65.8907 93.2045 64.184C93.8018 62.4773 94.6765 61.0267 95.8285 59.832C97.0232 58.5947 98.4738 57.656 100.181 57.016C101.93 56.3333 103.914 56.0133 106.133 56.056H109.653V44.6C109.653 43.9173 109.653 43.256 109.653 42.616C109.653 41.9333 109.717 41.3147 109.845 40.76C109.973 40.1627 110.229 39.6507 110.613 39.224C110.997 38.7973 111.573 38.4773 112.341 38.264ZM101.205 73.784C102.101 75.0213 103.722 75.704 106.069 75.832C106.538 75.8747 106.986 75.896 107.413 75.896C107.839 75.8533 108.223 75.7893 108.565 75.704C108.949 75.6613 109.311 75.5973 109.653 75.512V63.672C108.159 63.416 106.794 63.2667 105.557 63.224C104.362 63.1387 103.167 63.5653 101.973 64.504C101.333 65.016 100.842 65.6773 100.501 66.488C100.159 67.256 99.9672 68.088 99.9245 68.984C99.8818 69.8373 99.9672 70.6907 100.181 71.544C100.394 72.3973 100.735 73.144 101.205 73.784ZM130.687 58.744C130.687 59.9387 130.687 61.2827 130.687 62.776C130.729 64.2693 130.751 65.8267 130.751 67.448C130.751 69.0267 130.751 70.6053 130.751 72.184C130.751 73.72 130.729 75.1493 130.687 76.472C130.644 77.112 130.58 77.816 130.495 78.584C130.409 79.3093 130.239 79.992 129.983 80.632C129.727 81.272 129.321 81.8053 128.767 82.232C128.255 82.616 127.551 82.7867 126.655 82.744C125.332 82.6587 124.372 82.0827 123.775 81.016C123.22 79.9493 122.9 78.456 122.815 76.536C122.815 75.5547 122.793 74.424 122.751 73.144C122.751 71.864 122.729 70.5627 122.687 69.24C122.687 67.9173 122.687 66.6373 122.687 65.4C122.687 64.12 122.687 62.968 122.687 61.944C122.687 61.3467 122.665 60.6213 122.623 59.768C122.623 58.9147 122.644 58.04 122.687 57.144C122.729 56.248 122.836 55.3947 123.007 54.584C123.177 53.7307 123.455 53.0267 123.839 52.472C124.137 52.1307 124.564 51.8747 125.119 51.704C125.673 51.4907 126.249 51.384 126.847 51.384C127.487 51.384 128.084 51.4907 128.639 51.704C129.236 51.9173 129.663 52.216 129.919 52.6C130.089 52.856 130.217 53.2187 130.303 53.688C130.388 54.1573 130.452 54.6907 130.495 55.288C130.58 55.8427 130.623 56.44 130.623 57.08C130.665 57.6773 130.687 58.232 130.687 58.744ZM128.255 45.816C126.932 46.1573 125.823 46.0293 124.927 45.432C124.073 44.792 123.54 43.8533 123.327 42.616C123.156 41.72 123.22 40.9307 123.519 40.248C123.817 39.5653 124.265 39.0533 124.863 38.712C125.46 38.328 126.143 38.1573 126.911 38.2C127.679 38.2427 128.447 38.5413 129.215 39.096C129.94 39.608 130.452 40.2053 130.751 40.888C131.092 41.5707 131.199 42.232 131.071 42.872C130.985 43.512 130.708 44.1093 130.239 44.664C129.769 45.176 129.108 45.56 128.255 45.816ZM158.454 74.232C158.966 74.104 159.478 74.0187 159.99 73.976C160.545 73.9333 161.035 73.9973 161.462 74.168C161.931 74.3387 162.315 74.6373 162.614 75.064C162.913 75.448 163.062 76.0027 163.062 76.728C163.062 77.24 162.934 77.7307 162.678 78.2C162.422 78.6693 162.102 79.096 161.718 79.48C161.334 79.864 160.907 80.2053 160.438 80.504C159.969 80.76 159.521 80.9733 159.094 81.144C157.857 81.6987 156.427 82.1253 154.806 82.424C153.227 82.7227 151.585 82.8293 149.878 82.744C147.574 82.6587 145.355 82.2107 143.222 81.4C141.131 80.5467 139.489 79.16 138.294 77.24C137.185 75.3627 136.523 73.272 136.31 70.968C136.097 68.664 136.203 66.488 136.63 64.44C137.099 61.9653 137.889 59.96 138.998 58.424C140.15 56.8453 141.515 55.5867 143.094 54.648C145.014 53.5387 147.169 52.9627 149.558 52.92C151.947 52.8773 154.23 53.3467 156.406 54.328C157.857 54.968 159.158 55.8427 160.31 56.952C161.462 58.0187 162.337 59.32 162.934 60.856C163.105 61.24 163.233 61.7093 163.318 62.264C163.446 62.8187 163.531 63.416 163.574 64.056C163.617 64.6533 163.617 65.2507 163.574 65.848C163.531 66.4453 163.425 66.9787 163.254 67.448C162.998 68.216 162.678 68.8133 162.294 69.24C161.91 69.6667 161.419 69.9867 160.822 70.2C160.225 70.4133 159.499 70.5627 158.646 70.648C157.835 70.6907 156.854 70.7333 155.702 70.776C154.678 70.8187 153.718 70.84 152.822 70.84C151.926 70.84 151.009 70.84 150.07 70.84C149.131 70.7973 148.15 70.776 147.126 70.776C146.145 70.7333 145.035 70.6907 143.798 70.648C143.67 71.5013 143.777 72.248 144.118 72.888C144.502 73.4853 145.014 73.9973 145.654 74.424C146.294 74.808 147.019 75.1067 147.83 75.32C148.641 75.5333 149.43 75.6613 150.198 75.704C151.649 75.7893 153.035 75.6827 154.358 75.384C155.681 75.0427 157.046 74.6587 158.454 74.232ZM155.702 61.816C154.891 60.8773 154.038 60.1947 153.142 59.768C152.459 59.4693 151.734 59.3413 150.966 59.384C150.241 59.384 149.537 59.4907 148.854 59.704C147.617 60.0027 146.571 60.6427 145.718 61.624C145.633 61.7093 145.483 61.9227 145.27 62.264C145.057 62.5627 144.843 62.8827 144.63 63.224C144.459 63.5653 144.331 63.8853 144.246 64.184C144.161 64.4827 144.203 64.632 144.374 64.632H156.918C156.875 64.0347 156.769 63.544 156.598 63.16C156.427 62.7333 156.129 62.2853 155.702 61.816ZM187.116 55.928C187.841 56.1413 188.31 56.5467 188.524 57.144C188.737 57.6987 188.801 58.296 188.716 58.936C188.46 60.2587 187.734 61.0693 186.54 61.368C185.857 61.5387 185.153 61.624 184.428 61.624C183.745 61.624 183.041 61.6453 182.316 61.688V76.472C182.316 77.496 182.252 78.5413 182.124 79.608C182.124 79.992 182.017 80.3973 181.804 80.824C181.718 81.0373 181.654 81.1653 181.612 81.208C181.612 81.2933 181.569 81.4213 181.484 81.592C181.228 82.0613 180.886 82.4453 180.46 82.744C179.521 83.256 178.518 83.384 177.452 83.128C176.812 83 176.321 82.7867 175.98 82.488C175.596 82.1893 175.318 81.8267 175.148 81.4C175.062 81.1867 174.998 80.9733 174.956 80.76C174.913 80.5467 174.849 80.3333 174.764 80.12C174.721 79.9067 174.678 79.7147 174.635 79.544C174.635 79.3307 174.635 79.16 174.635 79.032V75.32C174.635 73.1013 174.635 70.7973 174.635 68.408C174.678 66.0187 174.7 63.7147 174.7 61.496C173.718 61.4533 172.694 61.432 171.628 61.432C170.604 61.3893 169.857 61.1333 169.388 60.664C169.132 60.408 168.961 60.088 168.876 59.704C168.79 59.2773 168.748 58.8507 168.748 58.424C168.79 57.9973 168.876 57.6133 169.004 57.272C169.132 56.888 169.302 56.6107 169.516 56.44C170.07 55.928 170.561 55.6507 170.988 55.608C171.457 55.5227 172.033 55.4587 172.716 55.416C172.801 55.416 173.078 55.416 173.548 55.416C174.06 55.3733 174.38 55.352 174.508 55.352C174.55 53.9013 174.593 52.4507 174.635 51C174.678 49.5493 174.806 48.2267 175.02 47.032C175.276 45.7947 175.638 44.728 176.108 43.832C176.62 42.8933 177.388 42.1893 178.412 41.72C179.649 41.1653 181.057 40.824 182.635 40.696C184.214 40.568 185.644 40.76 186.924 41.272C187.521 41.4853 188.097 41.912 188.652 42.552C189.249 43.192 189.526 43.896 189.484 44.664C189.441 45.432 189.292 46.136 189.036 46.776C188.78 47.416 188.225 47.8427 187.372 48.056C186.988 48.1413 186.582 48.184 186.156 48.184C185.772 48.1413 185.366 48.12 184.94 48.12C184.513 48.12 184.108 48.184 183.724 48.312C183.382 48.3973 183.084 48.5893 182.828 48.888C182.614 49.144 182.465 49.4853 182.38 49.912C182.337 50.3387 182.294 50.7867 182.252 51.256C182.209 51.7253 182.188 52.1947 182.188 52.664C182.23 53.0907 182.252 53.4533 182.252 53.752V55.352C183.233 55.4373 184.129 55.5013 184.94 55.544C185.793 55.5867 186.518 55.7147 187.116 55.928ZM214.079 74.232C214.591 74.104 215.103 74.0187 215.615 73.976C216.17 73.9333 216.66 73.9973 217.087 74.168C217.556 74.3387 217.94 74.6373 218.239 75.064C218.538 75.448 218.687 76.0027 218.687 76.728C218.687 77.24 218.559 77.7307 218.303 78.2C218.047 78.6693 217.727 79.096 217.343 79.48C216.959 79.864 216.532 80.2053 216.063 80.504C215.594 80.76 215.146 80.9733 214.719 81.144C213.482 81.6987 212.052 82.1253 210.431 82.424C208.852 82.7227 207.21 82.8293 205.503 82.744C203.199 82.6587 200.98 82.2107 198.847 81.4C196.756 80.5467 195.114 79.16 193.919 77.24C192.81 75.3627 192.148 73.272 191.935 70.968C191.722 68.664 191.828 66.488 192.255 64.44C192.724 61.9653 193.514 59.96 194.623 58.424C195.775 56.8453 197.14 55.5867 198.719 54.648C200.639 53.5387 202.794 52.9627 205.183 52.92C207.572 52.8773 209.855 53.3467 212.031 54.328C213.482 54.968 214.783 55.8427 215.935 56.952C217.087 58.0187 217.962 59.32 218.559 60.856C218.73 61.24 218.858 61.7093 218.943 62.264C219.071 62.8187 219.156 63.416 219.199 64.056C219.242 64.6533 219.242 65.2507 219.199 65.848C219.156 66.4453 219.05 66.9787 218.879 67.448C218.623 68.216 218.303 68.8133 217.919 69.24C217.535 69.6667 217.044 69.9867 216.447 70.2C215.85 70.4133 215.124 70.5627 214.271 70.648C213.46 70.6907 212.479 70.7333 211.327 70.776C210.303 70.8187 209.343 70.84 208.447 70.84C207.551 70.84 206.634 70.84 205.695 70.84C204.756 70.7973 203.775 70.776 202.751 70.776C201.77 70.7333 200.66 70.6907 199.423 70.648C199.295 71.5013 199.402 72.248 199.743 72.888C200.127 73.4853 200.639 73.9973 201.279 74.424C201.919 74.808 202.644 75.1067 203.455 75.32C204.266 75.5333 205.055 75.6613 205.823 75.704C207.274 75.7893 208.66 75.6827 209.983 75.384C211.306 75.0427 212.671 74.6587 214.079 74.232ZM211.327 61.816C210.516 60.8773 209.663 60.1947 208.767 59.768C208.084 59.4693 207.359 59.3413 206.591 59.384C205.866 59.384 205.162 59.4907 204.479 59.704C203.242 60.0027 202.196 60.6427 201.343 61.624C201.258 61.7093 201.108 61.9227 200.895 62.264C200.682 62.5627 200.468 62.8827 200.255 63.224C200.084 63.5653 199.956 63.8853 199.871 64.184C199.786 64.4827 199.828 64.632 199.999 64.632H212.543C212.5 64.0347 212.394 63.544 212.223 63.16C212.052 62.7333 211.754 62.2853 211.327 61.816ZM234.26 77.88C234.217 78.0933 234.174 78.3067 234.132 78.52C234.132 78.6907 234.132 78.8827 234.132 79.096L233.748 80.44C233.662 80.6107 233.598 80.7173 233.556 80.76L233.364 81.144C233.15 81.6133 232.766 81.9973 232.212 82.296C231.188 82.808 230.1 82.936 228.948 82.68C228.222 82.5947 227.646 82.3813 227.22 82.04C226.793 81.7413 226.494 81.3787 226.324 80.952C226.153 80.5253 226.025 80.0987 225.94 79.672C225.812 79.2453 225.748 78.8613 225.748 78.52V42.68C225.748 42.3813 225.748 42.1253 225.748 41.912C225.79 41.656 225.833 41.4213 225.876 41.208C225.918 40.9093 225.961 40.6533 226.004 40.44C226.089 40.2267 226.174 39.992 226.26 39.736C226.388 39.3093 226.622 38.968 226.964 38.712C227.476 38.328 227.966 38.1147 228.436 38.072C228.734 37.9867 229.012 37.944 229.268 37.944C229.524 37.9013 229.822 37.88 230.164 37.88C230.761 37.88 231.444 38.0507 232.212 38.392C232.809 38.7333 233.236 39.2027 233.492 39.8C233.918 40.6533 234.132 41.4427 234.132 42.168C234.174 42.5947 234.196 43.2347 234.196 44.088C234.238 44.9413 234.26 45.5813 234.26 46.008V46.264C234.345 47.6293 234.388 48.952 234.388 50.232C234.388 51.4693 234.366 52.8347 234.324 54.328C234.324 55.7787 234.302 57.1867 234.26 58.552C234.26 59.8747 234.26 61.1973 234.26 62.52V75.96C234.26 76.1307 234.26 76.3013 234.26 76.472C234.302 76.6 234.324 76.7493 234.324 76.92C234.324 77.3467 234.302 77.6667 234.26 77.88ZM250.76 77.88C250.717 78.0933 250.674 78.3067 250.632 78.52C250.632 78.6907 250.632 78.8827 250.632 79.096L250.248 80.44C250.162 80.6107 250.098 80.7173 250.056 80.76L249.864 81.144C249.65 81.6133 249.266 81.9973 248.712 82.296C247.688 82.808 246.6 82.936 245.448 82.68C244.722 82.5947 244.146 82.3813 243.72 82.04C243.293 81.7413 242.994 81.3787 242.824 80.952C242.653 80.5253 242.525 80.0987 242.44 79.672C242.312 79.2453 242.248 78.8613 242.248 78.52V42.68C242.248 42.3813 242.248 42.1253 242.248 41.912C242.29 41.656 242.333 41.4213 242.376 41.208C242.418 40.9093 242.461 40.6533 242.504 40.44C242.589 40.2267 242.674 39.992 242.76 39.736C242.888 39.3093 243.122 38.968 243.464 38.712C243.976 38.328 244.466 38.1147 244.936 38.072C245.234 37.9867 245.512 37.944 245.768 37.944C246.024 37.9013 246.322 37.88 246.664 37.88C247.261 37.88 247.944 38.0507 248.712 38.392C249.309 38.7333 249.736 39.2027 249.992 39.8C250.418 40.6533 250.632 41.4427 250.632 42.168C250.674 42.5947 250.696 43.2347 250.696 44.088C250.738 44.9413 250.76 45.5813 250.76 46.008V46.264C250.845 47.6293 250.888 48.952 250.888 50.232C250.888 51.4693 250.866 52.8347 250.824 54.328C250.824 55.7787 250.802 57.1867 250.76 58.552C250.76 59.8747 250.76 61.1973 250.76 62.52V75.96C250.76 76.1307 250.76 76.3013 250.76 76.472C250.802 76.6 250.824 76.7493 250.824 76.92C250.824 77.3467 250.802 77.6667 250.76 77.88ZM263.486 56.056C264.766 55.416 266.11 54.968 267.518 54.712C268.926 54.4133 270.312 54.3493 271.678 54.52C273.086 54.648 274.43 55.0107 275.71 55.608C276.99 56.1627 278.184 56.9733 279.294 58.04C280.403 59.1493 281.256 60.3653 281.854 61.688C282.451 63.0107 282.878 64.4827 283.134 66.104C283.304 67.2133 283.582 68.2373 283.966 69.176C284.35 70.1147 284.755 71.0533 285.182 71.992C285.651 72.9307 286.078 73.8693 286.462 74.808C286.888 75.7467 287.23 76.728 287.486 77.752C287.699 78.7333 287.613 79.6933 287.229 80.632C286.888 81.528 286.163 82.0827 285.054 82.296C284.414 82.424 283.795 82.3813 283.198 82.168C282.643 81.912 282.131 81.5707 281.662 81.144C281.192 80.6747 280.766 80.184 280.382 79.672C280.04 79.1173 279.72 78.6053 279.422 78.136C278.44 79.416 277.374 80.4187 276.222 81.144C275.07 81.8267 273.683 82.2747 272.062 82.488C270.696 82.6587 269.395 82.7013 268.158 82.616C266.92 82.5307 265.598 82.296 264.19 81.912C262.355 81.4427 260.84 80.632 259.646 79.48C258.494 78.2853 257.598 76.92 256.958 75.384C256.36 73.8053 256.04 72.12 255.998 70.328C255.955 68.536 256.168 66.7653 256.638 65.016C257.235 62.712 258.131 60.8347 259.326 59.384C260.52 57.9333 261.907 56.824 263.486 56.056ZM265.086 63.544C264.488 64.1413 264.019 64.8453 263.678 65.656C263.336 66.4667 263.123 67.32 263.038 68.216C262.995 69.112 263.08 70.008 263.294 70.904C263.507 71.8 263.848 72.5893 264.318 73.272C264.744 73.8693 265.47 74.3813 266.494 74.808C267.518 75.192 268.584 75.4267 269.694 75.512C270.974 75.5973 272.083 75.256 273.022 74.488C274.003 73.72 274.728 72.76 275.198 71.608C275.71 70.4133 275.944 69.1547 275.902 67.832C275.859 66.4667 275.496 65.2293 274.814 64.12C274.302 63.3093 273.619 62.712 272.766 62.328C271.955 61.944 271.08 61.752 270.142 61.752C269.203 61.7093 268.264 61.8587 267.326 62.2C266.43 62.4987 265.683 62.9467 265.086 63.544ZM308.106 71.736C307.295 71.224 306.378 70.8187 305.354 70.52C304.373 70.2213 303.349 69.944 302.282 69.688C301.258 69.432 300.255 69.1547 299.274 68.856C298.293 68.5147 297.397 68.0453 296.586 67.448C294.837 66.1253 293.813 64.504 293.514 62.584C293.258 60.6213 293.685 58.6587 294.794 56.696C295.391 55.672 296.181 54.84 297.162 54.2C298.143 53.5173 299.21 53.0053 300.362 52.664C301.557 52.28 302.773 52.0667 304.01 52.024C305.247 51.9813 306.421 52.0453 307.53 52.216C308.255 52.344 309.023 52.536 309.834 52.792C310.645 53.0053 311.391 53.304 312.074 53.688C312.799 54.072 313.439 54.5627 313.994 55.16C314.591 55.7147 315.018 56.4187 315.274 57.272C315.445 57.8267 315.466 58.36 315.338 58.872C315.253 59.384 315.039 59.8107 314.698 60.152C314.399 60.4933 313.994 60.7493 313.482 60.92C313.013 61.0907 312.501 61.1333 311.946 61.048C311.306 60.92 310.709 60.728 310.154 60.472C309.599 60.216 309.045 59.9387 308.49 59.64C307.935 59.3413 307.359 59.0853 306.762 58.872C306.207 58.6587 305.61 58.552 304.97 58.552C303.989 58.5093 303.178 58.68 302.538 59.064C301.898 59.448 301.45 59.9173 301.194 60.472C300.981 61.0267 301.002 61.624 301.258 62.264C301.557 62.904 302.154 63.4587 303.05 63.928C303.861 64.3547 304.757 64.696 305.738 64.952C306.719 65.208 307.679 65.464 308.618 65.72C309.599 65.976 310.538 66.2747 311.434 66.616C312.373 66.9573 313.205 67.4267 313.93 68.024C315.338 69.176 316.191 70.52 316.49 72.056C316.831 73.592 316.746 75.1067 316.234 76.6C315.722 78.0933 314.826 79.416 313.546 80.568C312.309 81.72 310.837 82.488 309.13 82.872C307.893 83.128 306.549 83.256 305.098 83.256C303.69 83.256 302.282 83.1067 300.874 82.808C299.509 82.5093 298.186 82.04 296.906 81.4C295.669 80.76 294.623 79.9493 293.77 78.968C293.173 78.2853 292.853 77.5173 292.81 76.664C292.81 75.768 292.981 75 293.322 74.36C293.706 73.6773 294.239 73.208 294.922 72.952C295.605 72.696 296.373 72.8453 297.226 73.4C297.909 73.8693 298.719 74.3387 299.658 74.808C300.597 75.2347 301.535 75.576 302.474 75.832C303.413 76.088 304.309 76.216 305.162 76.216C306.058 76.216 306.826 76.024 307.466 75.64C308.405 75.0427 308.895 74.36 308.938 73.592C308.981 72.7813 308.703 72.1627 308.106 71.736Z" fill="white"/>
<path d="M363.803 81.5157C363.803 79.6047 364.137 77.6501 364.327 75.7511C364.723 71.7883 365.063 67.8466 365.938 63.9501C366.876 59.7742 367.241 55.5106 367.957 51.2951C368.513 48.0213 368.835 44.5323 368.869 41.2021C368.874 40.6778 368.512 38.503 368.908 38.0578C368.965 37.9939 369.132 38.1886 369.218 38.1936C369.39 38.2037 369.58 38.1602 369.742 38.2325C371.343 38.9438 372.415 40.355 373.799 41.4739C376.138 43.3637 379.038 44.3327 381.233 46.3651C381.667 46.7673 382.546 47.5651 383.019 47.8014" stroke="#A6FFB0" stroke-width="5" stroke-linecap="round"/>
<path d="M383.193 47.8014C384.094 47.8014 384.976 47.6223 385.872 47.5394C388.957 47.2537 392.123 47.452 395.217 47.452C395.404 47.452 401.044 47.8183 401.176 47.355C401.641 45.7294 403.71 44.2452 404.854 43.0849C406.019 41.904 407.115 40.6658 408.348 39.5523C408.964 38.9965 409.651 37.9341 410.444 37.6696" stroke="#A6FFB0" stroke-width="5" stroke-linecap="round"/>
<path d="M410.444 37.6696C411.508 40.1641 411.777 42.859 412.016 45.5499C412.537 51.4011 412.89 57.4622 412.434 63.3387C412.135 67.1951 411.667 71.0067 411.667 74.8777C411.667 76.1005 411.667 77.3233 411.667 78.5461C411.667 79.1192 411.553 79.7776 412.016 80.2153C412.346 80.5262 412.366 80.4356 412.366 80.9917" stroke="#A6FFB0" stroke-width="5" stroke-linecap="round"/>
<path d="M380.049 57.4091C379.766 57.4091 376.938 58.2382 376.982 58.2825C378.138 59.4379 379.46 58.5989 380.214 57.5935C381.324 56.1137 376.015 57.0438 377.603 58.6319C377.985 59.0132 379.163 58.935 379.389 58.4572C379.743 57.7103 378.91 56.9025 378.477 57.6614C378.401 57.7934 378.137 58.0651 378.341 58.2437C378.45 58.3395 378.479 57.0972 378.457 56.9724C378.383 56.5444 377.596 55.6622 377.118 55.6622C376.75 55.6622 376.756 57.4707 376.73 57.7585" stroke="#A6FFB0" stroke-width="5" stroke-linecap="round"/>
<path d="M399.963 57.2344C399.195 56.1496 398.391 57.7508 398.391 58.5931C398.391 60.2676 400.908 60.6497 402.215 60.3594C403.595 60.0525 402.072 58.3431 401.225 58.2825C400.658 58.242 399.788 57.7563 399.788 58.729C399.788 59.4703 400.641 60.1274 400.477 58.9813C400.317 57.8556 397.399 58.0066 399.381 60.0682C399.611 60.3075 402.933 62.9805 402.933 61.4948C402.933 60.2722 401.44 59.3307 400.312 59.3307" stroke="#A6FFB0" stroke-width="5" stroke-linecap="round"/>
<path d="M379.7 63.8725C379.7 65.539 380.157 67.2504 380.825 68.7734C381.232 69.7002 381.839 71.0731 382.844 71.5199C383.907 71.9925 385.11 69.6301 385.542 69.0257C386.04 68.3286 386.28 67.5111 386.648 66.7451C386.967 66.0827 386.826 66.3627 386.959 66.9489C387.465 69.192 388.925 74.3039 392.267 73.6355C394.011 73.2868 395.102 70.5403 395.771 69.1907C396.226 68.2723 397.22 66.7193 396.295 65.794" stroke="#A6FFB0" stroke-width="5" stroke-linecap="round"/>
<rect x="345.944" y="34" width="53.8207" height="49.4172" fill="#11111B"/>
<path d="M349.125 80.7818C349.125 78.8708 349.459 76.9163 349.649 75.0172C350.045 71.0544 350.385 67.1127 351.26 63.2162C352.197 59.0403 352.563 54.7767 353.278 50.5612C353.834 47.2874 354.157 43.7985 354.191 40.4682C354.196 39.9439 353.834 37.7692 354.229 37.3239C354.286 37.26 354.454 37.4547 354.54 37.4598C354.712 37.4699 354.902 37.4264 355.064 37.4986C356.665 38.2099 357.736 39.6211 359.121 40.74C361.459 42.6298 364.36 43.5988 366.555 45.6312C366.989 46.0334 367.868 46.8312 368.34 47.0675" stroke="#5888FF" stroke-width="5" stroke-linecap="round"/>
<path d="M368.515 47.0674C369.416 47.0674 370.297 46.8884 371.193 46.8054C374.278 46.5198 377.444 46.7181 380.539 46.7181C380.725 46.7181 386.365 47.0843 386.498 46.621C386.962 44.9955 389.032 43.5113 390.176 42.3509C391.34 41.17 392.436 39.9319 393.67 38.8184C394.285 38.2625 394.972 37.2002 395.766 36.9357" stroke="#5888FF" stroke-width="5" stroke-linecap="round"/>
<path d="M395.766 36.9357C396.829 39.4302 397.099 42.1251 397.338 44.8159C397.858 50.6672 398.211 56.7283 397.755 62.6048C397.456 66.4611 396.989 70.2727 396.989 74.1437C396.989 75.3665 396.989 76.5893 396.989 77.8121C396.989 78.3852 396.875 79.0436 397.338 79.4814C397.667 79.7922 397.687 79.7017 397.687 80.2577" stroke="#5888FF" stroke-width="5" stroke-linecap="round"/>
<path d="M365.371 56.6751C365.088 56.6751 362.26 57.5043 362.304 57.5486C363.459 58.7039 364.781 57.865 365.536 56.8595C366.645 55.3798 361.337 56.3099 362.925 57.8979C363.306 58.2793 364.484 58.2011 364.711 57.7233C365.064 56.9763 364.232 56.1685 363.798 56.9275C363.723 57.0595 363.458 57.3312 363.663 57.5098C363.772 57.6055 363.801 56.3633 363.779 56.2384C363.705 55.8105 362.917 54.9283 362.44 54.9283C362.071 54.9283 362.078 56.7367 362.052 57.0245" stroke="#5888FF" stroke-width="5" stroke-linecap="round"/>
<path d="M385.285 56.5005C384.516 55.4157 383.713 57.0169 383.713 57.8591C383.713 59.5336 386.23 59.9158 387.536 59.6254C388.917 59.3186 387.394 57.6091 386.546 57.5486C385.979 57.5081 385.11 57.0224 385.11 57.995C385.11 58.7363 385.963 59.3935 385.799 58.2473C385.638 57.1216 382.72 57.2727 384.702 59.3343C384.933 59.5736 388.254 62.2465 388.254 60.7609C388.254 59.5383 386.762 58.5967 385.634 58.5967" stroke="#5888FF" stroke-width="5" stroke-linecap="round"/>
<path d="M365.021 63.1385C365.021 64.8051 365.479 66.5164 366.147 68.0395C366.553 68.9662 367.16 70.3392 368.166 70.7859C369.229 71.2586 370.432 68.8961 370.863 68.2918C371.361 67.5947 371.602 66.7771 371.97 66.0112C372.288 65.3488 372.148 65.6287 372.28 66.215C372.787 68.4581 374.247 73.5699 377.589 72.9015C379.333 72.5528 380.424 69.8063 381.092 68.4568C381.547 67.5384 382.542 65.9853 381.616 65.0601" stroke="#5888FF" stroke-width="5" stroke-linecap="round"/>
<rect x="332" y="34" width="52" height="50" fill="#11111B"/>
<path d="M333.771 81.4142C333.771 79.5032 334.105 77.5486 334.295 75.6496C334.691 71.6868 335.031 67.7451 335.906 63.8486C336.843 59.6727 337.209 55.4091 337.924 51.1936C338.48 47.9198 338.803 44.4308 338.837 41.1006C338.842 40.5763 338.48 38.4015 338.875 37.9563C338.932 37.8924 339.1 38.0871 339.186 38.0921C339.358 38.1022 339.548 38.0587 339.71 38.131C341.31 38.8423 342.382 40.2535 343.767 41.3724C346.105 43.2622 349.005 44.2312 351.2 46.2636C351.635 46.6658 352.514 47.4636 352.986 47.6999" stroke="white" stroke-width="5" stroke-linecap="round"/>
<path d="M353.161 47.6998C354.062 47.6998 354.943 47.5208 355.839 47.4378C358.924 47.1521 362.09 47.3505 365.185 47.3505C365.371 47.3505 371.011 47.7167 371.144 47.2534C371.608 45.6278 373.678 44.1436 374.822 42.9833C375.986 41.8024 377.082 40.5643 378.316 39.4508C378.931 38.8949 379.618 37.8325 380.412 37.5681" stroke="white" stroke-width="5" stroke-linecap="round"/>
<path d="M380.412 37.5681C381.475 40.0626 381.745 42.7574 381.984 45.4483C382.504 51.2996 382.857 57.3607 382.401 63.2372C382.102 67.0935 381.635 70.9051 381.635 74.7761C381.635 75.9989 381.635 77.2217 381.635 78.4445C381.635 79.0176 381.521 79.676 381.984 80.1137C382.313 80.4246 382.333 80.3341 382.333 80.8901" stroke="white" stroke-width="5" stroke-linecap="round"/>
<path d="M350.017 57.3075C349.734 57.3075 346.905 58.1367 346.95 58.181C348.105 59.3363 349.427 58.4974 350.181 57.4919C351.291 56.0122 345.983 56.9423 347.571 58.5303C347.952 58.9117 349.13 58.8335 349.357 58.3556C349.71 57.6087 348.878 56.8009 348.444 57.5599C348.369 57.6919 348.104 57.9636 348.308 58.1421C348.418 58.2379 348.447 56.9956 348.425 56.8708C348.35 56.4429 347.563 55.5607 347.086 55.5607C346.717 55.5607 346.724 57.3691 346.697 57.6569" stroke="white" stroke-width="5" stroke-linecap="round"/>
<path d="M369.931 57.1329C369.162 56.0481 368.359 57.6493 368.359 58.4915C368.359 60.166 370.876 60.5482 372.182 60.2578C373.563 59.951 372.04 58.2415 371.192 58.181C370.625 58.1405 369.756 57.6548 369.756 58.6274C369.756 59.3687 370.609 60.0258 370.445 58.8797C370.284 57.754 367.366 57.905 369.348 59.9667C369.579 60.206 372.9 62.8789 372.9 61.3933C372.9 60.1707 371.408 59.2291 370.28 59.2291" stroke="white" stroke-width="5" stroke-linecap="round"/>
<path d="M349.667 63.7709C349.667 65.4375 350.125 67.1488 350.793 68.6718C351.199 69.5986 351.806 70.9716 352.811 71.4183C353.875 71.891 355.078 69.5285 355.509 68.9242C356.007 68.2271 356.247 67.4095 356.616 66.6435C356.934 65.9812 356.794 66.2611 356.926 66.8473C357.433 69.0904 358.893 74.2023 362.235 73.5339C363.978 73.1852 365.07 70.4387 365.738 69.0891C366.193 68.1708 367.187 66.6177 366.262 65.6925" stroke="white" stroke-width="5" stroke-linecap="round"/>
<path d="M66.32 95.544C66.064 95.544 65.8613 95.472 65.712 95.328C65.5627 95.1787 65.488 94.984 65.488 94.744C65.488 94.5093 65.5627 94.3227 65.712 94.184C65.8613 94.0453 66.064 93.976 66.32 93.976C66.576 93.976 66.7787 94.0453 66.928 94.184C67.0773 94.3227 67.152 94.5093 67.152 94.744C67.152 94.984 67.0773 95.1787 66.928 95.328C66.7787 95.472 66.576 95.544 66.32 95.544ZM65.696 105V97.336H66.944V105H65.696ZM75.8216 105V100.504C75.8216 99.7733 75.6456 99.2187 75.2936 98.84C74.947 98.456 74.4723 98.264 73.8696 98.264C73.411 98.264 73.0136 98.3893 72.6776 98.64C72.3416 98.8907 72.083 99.2507 71.9016 99.72C71.7203 100.184 71.6296 100.739 71.6296 101.384H71.1496C71.1496 100.493 71.267 99.7333 71.5016 99.104C71.7363 98.4747 72.0776 97.9947 72.5256 97.664C72.979 97.328 73.5283 97.16 74.1736 97.16C74.7763 97.16 75.291 97.296 75.7176 97.568C76.1496 97.8347 76.4803 98.2187 76.7096 98.72C76.939 99.2213 77.0536 99.816 77.0536 100.504V105H75.8216ZM70.3816 105V97.352H71.4536L71.6296 99.112V105H70.3816ZM82.7739 105.192C82.1552 105.192 81.5872 105.027 81.0699 104.696C80.5525 104.36 80.1392 103.891 79.8299 103.288C79.5205 102.68 79.3659 101.965 79.3659 101.144C79.3659 100.328 79.5179 99.6213 79.8219 99.024C80.1259 98.4267 80.5285 97.968 81.0299 97.648C81.5365 97.3227 82.0912 97.16 82.6939 97.16C83.2539 97.16 83.7445 97.296 84.1659 97.568C84.5925 97.84 84.9232 98.232 85.1579 98.744C85.3925 99.256 85.5099 99.8747 85.5099 100.6H85.0299C85.0299 100.093 84.9285 99.6667 84.7259 99.32C84.5285 98.9733 84.2699 98.712 83.9499 98.536C83.6299 98.3547 83.2859 98.264 82.9179 98.264C82.5019 98.264 82.1205 98.3813 81.7739 98.616C81.4325 98.8453 81.1579 99.176 80.9499 99.608C80.7472 100.035 80.6459 100.547 80.6459 101.144C80.6459 101.752 80.7472 102.275 80.9499 102.712C81.1579 103.149 81.4325 103.485 81.7739 103.72C82.1205 103.955 82.5019 104.072 82.9179 104.072C83.2645 104.072 83.5979 103.981 83.9179 103.8C84.2432 103.619 84.5099 103.355 84.7179 103.008C84.9259 102.656 85.0299 102.232 85.0299 101.736H85.5099C85.5099 102.477 85.3872 103.107 85.1419 103.624C84.9019 104.136 84.5739 104.525 84.1579 104.792C83.7472 105.059 83.2859 105.192 82.7739 105.192ZM85.2379 105L85.0299 103.208V94.088H86.2779V105H85.2379ZM90.2263 95.544C89.9703 95.544 89.7676 95.472 89.6183 95.328C89.4689 95.1787 89.3943 94.984 89.3943 94.744C89.3943 94.5093 89.4689 94.3227 89.6183 94.184C89.7676 94.0453 89.9703 93.976 90.2263 93.976C90.4823 93.976 90.6849 94.0453 90.8343 94.184C90.9836 94.3227 91.0583 94.5093 91.0583 94.744C91.0583 94.984 90.9836 95.1787 90.8343 95.328C90.6849 95.472 90.4823 95.544 90.2263 95.544ZM89.6023 105V97.336H90.8503V105H89.6023ZM96.9439 105.192C96.2825 105.192 95.6905 105.024 95.1679 104.688C94.6505 104.347 94.2399 103.875 93.9359 103.272C93.6372 102.669 93.4879 101.976 93.4879 101.192C93.4879 100.355 93.6372 99.6347 93.9359 99.032C94.2345 98.4293 94.6425 97.968 95.1599 97.648C95.6825 97.3227 96.2772 97.16 96.9439 97.16C97.5252 97.16 98.0212 97.2773 98.4319 97.512C98.8425 97.7467 99.1732 98.064 99.4239 98.464C99.6745 98.864 99.8479 99.3173 99.9439 99.824C100.045 100.325 100.075 100.845 100.032 101.384H94.4959V100.616H99.2079L98.8399 100.856C98.8559 100.541 98.8372 100.227 98.7839 99.912C98.7359 99.5973 98.6425 99.3093 98.5039 99.048C98.3652 98.7813 98.1705 98.568 97.9199 98.408C97.6692 98.248 97.3492 98.168 96.9599 98.168C96.4692 98.168 96.0585 98.2933 95.7279 98.544C95.3972 98.7947 95.1492 99.1253 94.9839 99.536C94.8185 99.9413 94.7359 100.381 94.7359 100.856V101.368C94.7359 101.901 94.8159 102.379 94.9759 102.8C95.1412 103.221 95.3865 103.555 95.7119 103.8C96.0372 104.045 96.4479 104.168 96.9439 104.168C97.4399 104.168 97.8479 104.048 98.1679 103.808C98.4879 103.568 98.6825 103.213 98.7519 102.744H100.048C99.9679 103.251 99.7865 103.688 99.5039 104.056C99.2212 104.419 98.8612 104.699 98.4239 104.896C97.9865 105.093 97.4932 105.192 96.9439 105.192ZM101.179 97.352H102.475L104.427 103.736H104.267L106.171 97.72H107.211L109.099 103.752H108.955L110.907 97.352H112.155L109.643 105H108.427L106.571 99.352H106.763L104.923 105H103.707L101.179 97.352ZM116.756 105.192C116.095 105.192 115.503 105.024 114.98 104.688C114.463 104.347 114.052 103.875 113.748 103.272C113.45 102.669 113.3 101.976 113.3 101.192C113.3 100.355 113.45 99.6347 113.748 99.032C114.047 98.4293 114.455 97.968 114.972 97.648C115.495 97.3227 116.09 97.16 116.756 97.16C117.338 97.16 117.834 97.2773 118.244 97.512C118.655 97.7467 118.986 98.064 119.236 98.464C119.487 98.864 119.66 99.3173 119.756 99.824C119.858 100.325 119.887 100.845 119.844 101.384H114.308V100.616H119.02L118.652 100.856C118.668 100.541 118.65 100.227 118.596 99.912C118.548 99.5973 118.455 99.3093 118.316 99.048C118.178 98.7813 117.983 98.568 117.732 98.408C117.482 98.248 117.162 98.168 116.772 98.168C116.282 98.168 115.871 98.2933 115.54 98.544C115.21 98.7947 114.962 99.1253 114.796 99.536C114.631 99.9413 114.548 100.381 114.548 100.856V101.368C114.548 101.901 114.628 102.379 114.788 102.8C114.954 103.221 115.199 103.555 115.524 103.8C115.85 104.045 116.26 104.168 116.756 104.168C117.252 104.168 117.66 104.048 117.98 103.808C118.3 103.568 118.495 103.213 118.564 102.744H119.86C119.78 103.251 119.599 103.688 119.316 104.056C119.034 104.419 118.674 104.699 118.236 104.896C117.799 105.093 117.306 105.192 116.756 105.192ZM125.823 105.192C125.311 105.192 124.847 105.059 124.431 104.792C124.02 104.525 123.692 104.136 123.447 103.624C123.207 103.107 123.087 102.477 123.087 101.736H123.567C123.567 102.232 123.668 102.656 123.871 103.008C124.079 103.355 124.346 103.619 124.671 103.8C124.996 103.981 125.338 104.072 125.695 104.072C126.106 104.072 126.482 103.955 126.823 103.72C127.164 103.485 127.436 103.149 127.639 102.712C127.847 102.275 127.951 101.752 127.951 101.144C127.951 100.547 127.85 100.035 127.647 99.608C127.444 99.176 127.17 98.8453 126.823 98.616C126.482 98.3813 126.1 98.264 125.679 98.264C125.316 98.264 124.972 98.3547 124.647 98.536C124.327 98.712 124.066 98.9733 123.863 99.32C123.666 99.6667 123.567 100.093 123.567 100.6H123.087C123.087 99.8747 123.204 99.256 123.439 98.744C123.679 98.232 124.01 97.84 124.431 97.568C124.852 97.296 125.343 97.16 125.903 97.16C126.506 97.16 127.058 97.3227 127.559 97.648C128.066 97.968 128.471 98.4267 128.775 99.024C129.079 99.6213 129.231 100.328 129.231 101.144C129.231 101.965 129.076 102.68 128.767 103.288C128.458 103.891 128.044 104.36 127.527 104.696C127.01 105.027 126.442 105.192 125.823 105.192ZM122.319 105V94.088H123.567V103.208L123.199 105H122.319ZM138.336 105.192C137.718 105.192 137.15 105.027 136.632 104.696C136.115 104.36 135.702 103.891 135.392 103.288C135.083 102.68 134.928 101.965 134.928 101.144C134.928 100.328 135.08 99.6213 135.384 99.024C135.688 98.4267 136.091 97.968 136.592 97.648C137.099 97.3227 137.654 97.16 138.256 97.16C138.816 97.16 139.307 97.296 139.728 97.568C140.155 97.84 140.486 98.232 140.72 98.744C140.955 99.256 141.072 99.8747 141.072 100.6H140.592C140.592 100.093 140.491 99.6667 140.288 99.32C140.091 98.9733 139.832 98.712 139.512 98.536C139.192 98.3547 138.848 98.264 138.48 98.264C138.064 98.264 137.683 98.3813 137.336 98.616C136.995 98.8453 136.72 99.176 136.512 99.608C136.31 100.035 136.208 100.547 136.208 101.144C136.208 101.752 136.31 102.275 136.512 102.712C136.72 103.149 136.995 103.485 137.336 103.72C137.683 103.955 138.064 104.072 138.48 104.072C138.827 104.072 139.16 103.981 139.48 103.8C139.806 103.619 140.072 103.355 140.28 103.008C140.488 102.656 140.592 102.232 140.592 101.736H141.072C141.072 102.477 140.95 103.107 140.704 103.624C140.464 104.136 140.136 104.525 139.72 104.792C139.31 105.059 138.848 105.192 138.336 105.192ZM140.8 105L140.592 103.208V94.088H141.84V105H140.8ZM147.741 105.192C147.079 105.192 146.487 105.024 145.965 104.688C145.447 104.347 145.037 103.875 144.733 103.272C144.434 102.669 144.285 101.976 144.285 101.192C144.285 100.355 144.434 99.6347 144.733 99.032C145.031 98.4293 145.439 97.968 145.957 97.648C146.479 97.3227 147.074 97.16 147.741 97.16C148.322 97.16 148.818 97.2773 149.229 97.512C149.639 97.7467 149.97 98.064 150.221 98.464C150.471 98.864 150.645 99.3173 150.741 99.824C150.842 100.325 150.871 100.845 150.829 101.384H145.293V100.616H150.005L149.637 100.856C149.653 100.541 149.634 100.227 149.581 99.912C149.533 99.5973 149.439 99.3093 149.301 99.048C149.162 98.7813 148.967 98.568 148.717 98.408C148.466 98.248 148.146 98.168 147.757 98.168C147.266 98.168 146.855 98.2933 146.525 98.544C146.194 98.7947 145.946 99.1253 145.781 99.536C145.615 99.9413 145.533 100.381 145.533 100.856V101.368C145.533 101.901 145.613 102.379 145.773 102.8C145.938 103.221 146.183 103.555 146.509 103.8C146.834 104.045 147.245 104.168 147.741 104.168C148.237 104.168 148.645 104.048 148.965 103.808C149.285 103.568 149.479 103.213 149.549 102.744H150.845C150.765 103.251 150.583 103.688 150.301 104.056C150.018 104.419 149.658 104.699 149.221 104.896C148.783 105.093 148.29 105.192 147.741 105.192ZM151.976 97.352H153.4L155.799 103.928H155.624L158.024 97.352H159.448L156.391 105H155.032L151.976 97.352ZM164.102 105.192C163.361 105.192 162.742 105.088 162.246 104.88C161.75 104.667 161.374 104.376 161.118 104.008C160.862 103.635 160.726 103.208 160.71 102.728H161.91C161.937 103.213 162.132 103.579 162.494 103.824C162.862 104.064 163.361 104.184 163.99 104.184C164.321 104.184 164.625 104.131 164.902 104.024C165.18 103.917 165.401 103.771 165.566 103.584C165.732 103.397 165.814 103.187 165.814 102.952C165.814 102.653 165.705 102.419 165.486 102.248C165.268 102.077 164.918 101.928 164.438 101.8L162.95 101.32C162.305 101.117 161.809 100.84 161.462 100.488C161.121 100.131 160.95 99.704 160.95 99.208C160.95 98.5893 161.222 98.0933 161.766 97.72C162.31 97.3467 163.025 97.16 163.91 97.16C164.849 97.16 165.577 97.352 166.094 97.736C166.612 98.12 166.881 98.6 166.902 99.176H165.67C165.622 98.84 165.452 98.5867 165.158 98.416C164.865 98.24 164.449 98.152 163.91 98.152C163.393 98.152 162.988 98.2693 162.694 98.504C162.406 98.7333 162.262 98.9893 162.262 99.272C162.262 99.8 162.716 100.189 163.622 100.44L165.142 100.952C165.798 101.149 166.3 101.408 166.646 101.728C166.998 102.048 167.174 102.456 167.174 102.952C167.174 103.336 167.049 103.699 166.798 104.04C166.548 104.381 166.193 104.659 165.734 104.872C165.276 105.085 164.732 105.192 164.102 105.192ZM172.226 97.352H173.522L175.474 103.736H175.314L177.218 97.72H178.258L180.146 103.752H180.002L181.954 97.352H183.202L180.69 105H179.474L177.618 99.352H177.81L175.97 105H174.754L172.226 97.352ZM185.851 95.544C185.595 95.544 185.393 95.472 185.243 95.328C185.094 95.1787 185.019 94.984 185.019 94.744C185.019 94.5093 185.094 94.3227 185.243 94.184C185.393 94.0453 185.595 93.976 185.851 93.976C186.107 93.976 186.31 94.0453 186.459 94.184C186.609 94.3227 186.683 94.5093 186.683 94.744C186.683 94.984 186.609 95.1787 186.459 95.328C186.31 95.472 186.107 95.544 185.851 95.544ZM185.227 105V97.336H186.475V105H185.227ZM192.265 105.192C191.849 105.192 191.476 105.112 191.145 104.952C190.814 104.792 190.553 104.552 190.361 104.232C190.169 103.912 190.073 103.512 190.073 103.032V95.224H191.305V103C191.305 103.789 191.673 104.184 192.409 104.184C192.628 104.184 192.838 104.16 193.041 104.112C193.249 104.064 193.481 103.992 193.737 103.896L193.913 104.792C193.641 104.909 193.369 105.005 193.097 105.08C192.83 105.155 192.553 105.192 192.265 105.192ZM188.841 98.216V97.352H193.721V98.216H188.841ZM201.369 105V100.504C201.369 99.7733 201.193 99.2187 200.841 98.84C200.494 98.456 200.019 98.264 199.417 98.264C198.958 98.264 198.561 98.3893 198.225 98.64C197.889 98.8907 197.63 99.2507 197.449 99.72C197.267 100.184 197.177 100.739 197.177 101.384H196.697C196.697 100.493 196.814 99.7333 197.049 99.104C197.283 98.4747 197.625 97.9947 198.073 97.664C198.526 97.328 199.075 97.16 199.721 97.16C200.323 97.16 200.838 97.296 201.265 97.568C201.697 97.8347 202.027 98.2187 202.257 98.72C202.486 99.2213 202.601 99.816 202.601 100.504V105H201.369ZM195.929 105V94.088H197.177V105H195.929ZM214.822 105V100.504C214.822 99.7733 214.646 99.2187 214.294 98.84C213.947 98.456 213.472 98.264 212.87 98.264C212.411 98.264 212.014 98.3893 211.678 98.64C211.342 98.8907 211.083 99.2507 210.902 99.72C210.72 100.184 210.63 100.739 210.63 101.384H210.15C210.15 100.493 210.267 99.7333 210.502 99.104C210.736 98.4747 211.078 97.9947 211.526 97.664C211.979 97.328 212.528 97.16 213.174 97.16C213.776 97.16 214.291 97.296 214.718 97.568C215.15 97.8347 215.48 98.2187 215.71 98.72C215.939 99.2213 216.054 99.816 216.054 100.504V105H214.822ZM209.382 105V97.352H210.454L210.63 99.112V105H209.382ZM221.806 105.192C221.118 105.192 220.505 105.04 219.966 104.736C219.433 104.432 219.011 103.981 218.702 103.384C218.393 102.787 218.238 102.051 218.238 101.176C218.238 100.296 218.393 99.56 218.702 98.968C219.011 98.3707 219.433 97.92 219.966 97.616C220.505 97.312 221.118 97.16 221.806 97.16C222.489 97.16 223.097 97.312 223.63 97.616C224.169 97.92 224.59 98.3707 224.894 98.968C225.203 99.56 225.358 100.296 225.358 101.176C225.358 102.051 225.203 102.787 224.894 103.384C224.59 103.981 224.169 104.432 223.63 104.736C223.097 105.04 222.489 105.192 221.806 105.192ZM221.774 104.104C222.27 104.104 222.691 103.987 223.038 103.752C223.385 103.512 223.646 103.173 223.822 102.736C224.003 102.299 224.094 101.779 224.094 101.176C224.094 100.264 223.905 99.5467 223.526 99.024C223.147 98.496 222.585 98.232 221.838 98.232C221.337 98.232 220.913 98.352 220.566 98.592C220.225 98.8267 219.963 99.1653 219.782 99.608C219.606 100.045 219.518 100.568 219.518 101.176C219.518 102.077 219.707 102.792 220.086 103.32C220.47 103.843 221.033 104.104 221.774 104.104ZM232.289 95.544C232.033 95.544 231.83 95.472 231.681 95.328C231.531 95.1787 231.457 94.984 231.457 94.744C231.457 94.5093 231.531 94.3227 231.681 94.184C231.83 94.0453 232.033 93.976 232.289 93.976C232.545 93.976 232.747 94.0453 232.897 94.184C233.046 94.3227 233.121 94.5093 233.121 94.744C233.121 94.984 233.046 95.1787 232.897 95.328C232.747 95.472 232.545 95.544 232.289 95.544ZM231.665 105V97.336H232.913V105H231.665ZM239.086 105.192C238.468 105.192 237.9 105.027 237.382 104.696C236.865 104.36 236.452 103.891 236.142 103.288C235.833 102.68 235.678 101.965 235.678 101.144C235.678 100.328 235.83 99.6213 236.134 99.024C236.438 98.4267 236.841 97.968 237.342 97.648C237.849 97.3227 238.404 97.16 239.006 97.16C239.566 97.16 240.057 97.296 240.478 97.568C240.905 97.84 241.236 98.232 241.47 98.744C241.705 99.256 241.822 99.8747 241.822 100.6H241.342C241.342 100.093 241.241 99.6667 241.038 99.32C240.841 98.9733 240.582 98.712 240.262 98.536C239.942 98.3547 239.598 98.264 239.23 98.264C238.814 98.264 238.433 98.3813 238.086 98.616C237.745 98.8453 237.47 99.176 237.262 99.608C237.06 100.035 236.958 100.547 236.958 101.144C236.958 101.752 237.06 102.275 237.262 102.712C237.47 103.149 237.745 103.485 238.086 103.72C238.433 103.955 238.814 104.072 239.23 104.072C239.577 104.072 239.91 103.981 240.23 103.8C240.556 103.619 240.822 103.355 241.03 103.008C241.238 102.656 241.342 102.232 241.342 101.736H241.822C241.822 102.477 241.7 103.107 241.454 103.624C241.214 104.136 240.886 104.525 240.47 104.792C240.06 105.059 239.598 105.192 239.086 105.192ZM241.55 105L241.342 103.208V94.088H242.59V105H241.55ZM248.491 105.192C247.829 105.192 247.237 105.024 246.715 104.688C246.197 104.347 245.787 103.875 245.483 103.272C245.184 102.669 245.035 101.976 245.035 101.192C245.035 100.355 245.184 99.6347 245.483 99.032C245.781 98.4293 246.189 97.968 246.707 97.648C247.229 97.3227 247.824 97.16 248.491 97.16C249.072 97.16 249.568 97.2773 249.979 97.512C250.389 97.7467 250.72 98.064 250.971 98.464C251.221 98.864 251.395 99.3173 251.491 99.824C251.592 100.325 251.621 100.845 251.579 101.384H246.043V100.616H250.755L250.387 100.856C250.403 100.541 250.384 100.227 250.331 99.912C250.283 99.5973 250.189 99.3093 250.051 99.048C249.912 98.7813 249.717 98.568 249.467 98.408C249.216 98.248 248.896 98.168 248.507 98.168C248.016 98.168 247.605 98.2933 247.275 98.544C246.944 98.7947 246.696 99.1253 246.531 99.536C246.365 99.9413 246.283 100.381 246.283 100.856V101.368C246.283 101.901 246.363 102.379 246.523 102.8C246.688 103.221 246.933 103.555 247.259 103.8C247.584 104.045 247.995 104.168 248.491 104.168C248.987 104.168 249.395 104.048 249.715 103.808C250.035 103.568 250.229 103.213 250.299 102.744H251.595C251.515 103.251 251.333 103.688 251.051 104.056C250.768 104.419 250.408 104.699 249.971 104.896C249.533 105.093 249.04 105.192 248.491 105.192ZM258.79 105L258.63 103.32V100.04C258.63 99.352 258.483 98.8587 258.19 98.56C257.896 98.256 257.456 98.104 256.87 98.104C256.539 98.104 256.238 98.152 255.966 98.248C255.699 98.344 255.486 98.4933 255.326 98.696C255.171 98.8933 255.094 99.1493 255.094 99.464H253.702C253.702 98.9093 253.838 98.464 254.11 98.128C254.382 97.7867 254.755 97.5413 255.23 97.392C255.71 97.2373 256.256 97.16 256.87 97.16C257.456 97.16 257.976 97.2587 258.43 97.456C258.883 97.6533 259.238 97.968 259.494 98.4C259.75 98.8267 259.878 99.384 259.878 100.072V105H258.79ZM256.182 105.192C255.552 105.192 255.032 105.08 254.622 104.856C254.211 104.632 253.904 104.341 253.702 103.984C253.499 103.627 253.398 103.251 253.398 102.856C253.398 102.339 253.526 101.917 253.782 101.592C254.043 101.267 254.398 101.029 254.846 100.88C255.294 100.725 255.798 100.648 256.358 100.648C256.758 100.648 257.158 100.688 257.558 100.768C257.963 100.848 258.358 100.957 258.742 101.096V101.88C258.422 101.752 258.059 101.651 257.654 101.576C257.254 101.501 256.886 101.464 256.549 101.464C256.038 101.464 255.606 101.571 255.254 101.784C254.902 101.992 254.726 102.349 254.726 102.856C254.726 103.229 254.859 103.549 255.126 103.816C255.398 104.083 255.83 104.216 256.422 104.216C256.838 104.216 257.211 104.12 257.542 103.928C257.878 103.731 258.142 103.485 258.334 103.192C258.531 102.899 258.63 102.605 258.63 102.312H258.934C258.934 102.824 258.822 103.299 258.598 103.736C258.379 104.173 258.064 104.525 257.654 104.792C257.243 105.059 256.752 105.192 256.182 105.192ZM265.335 97.352H266.631L268.583 103.736H268.423L270.327 97.72H271.367L273.255 103.752H273.111L275.063 97.352H276.311L273.799 105H272.583L270.727 99.352H270.919L269.079 105H267.863L265.335 97.352ZM283.697 105V100.504C283.697 99.7733 283.521 99.2187 283.169 98.84C282.822 98.456 282.347 98.264 281.745 98.264C281.286 98.264 280.889 98.3893 280.553 98.64C280.217 98.8907 279.958 99.2507 279.777 99.72C279.595 100.184 279.505 100.739 279.505 101.384H279.025C279.025 100.493 279.142 99.7333 279.377 99.104C279.611 98.4747 279.953 97.9947 280.401 97.664C280.854 97.328 281.403 97.16 282.049 97.16C282.651 97.16 283.166 97.296 283.593 97.568C284.025 97.8347 284.355 98.2187 284.585 98.72C284.814 99.2213 284.929 99.816 284.929 100.504V105H283.697ZM278.257 105V94.088H279.505V105H278.257ZM292.649 105L292.489 103.32V100.04C292.489 99.352 292.342 98.8587 292.049 98.56C291.756 98.256 291.316 98.104 290.729 98.104C290.398 98.104 290.097 98.152 289.825 98.248C289.558 98.344 289.345 98.4933 289.185 98.696C289.03 98.8933 288.953 99.1493 288.953 99.464H287.561C287.561 98.9093 287.697 98.464 287.969 98.128C288.241 97.7867 288.614 97.5413 289.089 97.392C289.569 97.2373 290.116 97.16 290.729 97.16C291.316 97.16 291.836 97.2587 292.289 97.456C292.742 97.6533 293.097 97.968 293.353 98.4C293.609 98.8267 293.737 99.384 293.737 100.072V105H292.649ZM290.041 105.192C289.412 105.192 288.892 105.08 288.481 104.856C288.07 104.632 287.764 104.341 287.561 103.984C287.358 103.627 287.257 103.251 287.257 102.856C287.257 102.339 287.385 101.917 287.641 101.592C287.902 101.267 288.257 101.029 288.705 100.88C289.153 100.725 289.657 100.648 290.217 100.648C290.617 100.648 291.017 100.688 291.417 100.768C291.822 100.848 292.217 100.957 292.601 101.096V101.88C292.281 101.752 291.918 101.651 291.513 101.576C291.113 101.501 290.745 101.464 290.409 101.464C289.897 101.464 289.465 101.571 289.113 101.784C288.761 101.992 288.585 102.349 288.585 102.856C288.585 103.229 288.718 103.549 288.985 103.816C289.257 104.083 289.689 104.216 290.281 104.216C290.697 104.216 291.07 104.12 291.401 103.928C291.737 103.731 292.001 103.485 292.193 103.192C292.39 102.899 292.489 102.605 292.489 102.312H292.793C292.793 102.824 292.681 103.299 292.457 103.736C292.238 104.173 291.924 104.525 291.513 104.792C291.102 105.059 290.612 105.192 290.041 105.192ZM299.077 105.192C298.661 105.192 298.288 105.112 297.957 104.952C297.627 104.792 297.365 104.552 297.173 104.232C296.981 103.912 296.885 103.512 296.885 103.032V95.224H298.117V103C298.117 103.789 298.485 104.184 299.221 104.184C299.44 104.184 299.651 104.16 299.853 104.112C300.061 104.064 300.293 103.992 300.549 103.896L300.725 104.792C300.453 104.909 300.181 105.005 299.909 105.08C299.643 105.155 299.365 105.192 299.077 105.192ZM295.653 98.216V97.352H300.533V98.216H295.653ZM308.89 105.192C308.474 105.192 308.101 105.112 307.77 104.952C307.439 104.792 307.178 104.552 306.986 104.232C306.794 103.912 306.698 103.512 306.698 103.032V95.224H307.93V103C307.93 103.789 308.298 104.184 309.034 104.184C309.253 104.184 309.463 104.16 309.666 104.112C309.874 104.064 310.106 103.992 310.362 103.896L310.538 104.792C310.266 104.909 309.994 105.005 309.722 105.08C309.455 105.155 309.178 105.192 308.89 105.192ZM305.466 98.216V97.352H310.346V98.216H305.466ZM317.994 105V100.504C317.994 99.7733 317.818 99.2187 317.466 98.84C317.119 98.456 316.644 98.264 316.042 98.264C315.583 98.264 315.186 98.3893 314.85 98.64C314.514 98.8907 314.255 99.2507 314.074 99.72C313.892 100.184 313.802 100.739 313.802 101.384H313.322C313.322 100.493 313.439 99.7333 313.674 99.104C313.908 98.4747 314.25 97.9947 314.698 97.664C315.151 97.328 315.7 97.16 316.346 97.16C316.948 97.16 317.463 97.296 317.89 97.568C318.322 97.8347 318.652 98.2187 318.882 98.72C319.111 99.2213 319.226 99.816 319.226 100.504V105H317.994ZM312.554 105V94.088H313.802V105H312.554ZM324.866 105.192C324.204 105.192 323.612 105.024 323.09 104.688C322.572 104.347 322.162 103.875 321.858 103.272C321.559 102.669 321.41 101.976 321.41 101.192C321.41 100.355 321.559 99.6347 321.858 99.032C322.156 98.4293 322.564 97.968 323.082 97.648C323.604 97.3227 324.199 97.16 324.866 97.16C325.447 97.16 325.943 97.2773 326.354 97.512C326.764 97.7467 327.095 98.064 327.346 98.464C327.596 98.864 327.77 99.3173 327.866 99.824C327.967 100.325 327.996 100.845 327.954 101.384H322.418V100.616H327.13L326.762 100.856C326.778 100.541 326.759 100.227 326.706 99.912C326.658 99.5973 326.564 99.3093 326.426 99.048C326.287 98.7813 326.092 98.568 325.842 98.408C325.591 98.248 325.271 98.168 324.882 98.168C324.391 98.168 323.98 98.2933 323.65 98.544C323.319 98.7947 323.071 99.1253 322.906 99.536C322.74 99.9413 322.658 100.381 322.658 100.856V101.368C322.658 101.901 322.738 102.379 322.898 102.8C323.063 103.221 323.308 103.555 323.634 103.8C323.959 104.045 324.37 104.168 324.866 104.168C325.362 104.168 325.77 104.048 326.09 103.808C326.41 103.568 326.604 103.213 326.674 102.744H327.97C327.89 103.251 327.708 103.688 327.426 104.056C327.143 104.419 326.783 104.699 326.346 104.896C325.908 105.093 325.415 105.192 324.866 105.192ZM329.165 97.352H330.557L333.053 103.912H332.765L334.701 97.352H335.981L333.101 106.536C332.861 107.304 332.541 107.896 332.141 108.312C331.741 108.728 331.229 108.936 330.605 108.936C330.269 108.936 329.949 108.888 329.645 108.792C329.346 108.696 329.037 108.557 328.716 108.376V107.224C328.999 107.448 329.271 107.608 329.533 107.704C329.799 107.8 330.077 107.848 330.365 107.848C330.685 107.848 330.951 107.747 331.164 107.544C331.383 107.341 331.565 107.08 331.709 106.76C331.853 106.445 331.975 106.115 332.077 105.768L332.301 105L329.165 97.352ZM337.402 98.296L336.506 97.816C336.81 97.6613 337.066 97.488 337.274 97.296C337.487 97.0987 337.626 96.872 337.69 96.616C337.45 96.5893 337.247 96.5067 337.082 96.368C336.922 96.2293 336.842 96.0453 336.842 95.816C336.842 95.5813 336.93 95.384 337.106 95.224C337.282 95.064 337.503 94.984 337.77 94.984C337.994 94.984 338.186 95.0427 338.346 95.16C338.506 95.272 338.628 95.424 338.714 95.616C338.799 95.8027 338.842 96.0133 338.842 96.248C338.842 96.632 338.716 97.008 338.466 97.376C338.215 97.7387 337.86 98.0453 337.402 98.296ZM341.288 105V97.336H342.536V105H341.288ZM342.152 101.544C342.152 100.573 342.245 99.768 342.432 99.128C342.619 98.4827 342.891 98.0027 343.248 97.688C343.611 97.368 344.051 97.208 344.568 97.208C344.739 97.208 344.893 97.2213 345.032 97.248C345.176 97.2693 345.32 97.304 345.464 97.352L345.384 98.584C345.235 98.536 345.072 98.496 344.896 98.464C344.72 98.4267 344.563 98.408 344.424 98.408C343.971 98.408 343.605 98.5387 343.328 98.8C343.051 99.056 342.848 99.4187 342.72 99.888C342.597 100.357 342.536 100.909 342.536 101.544H342.152ZM349.725 105.192C349.064 105.192 348.472 105.024 347.949 104.688C347.432 104.347 347.021 103.875 346.717 103.272C346.418 102.669 346.269 101.976 346.269 101.192C346.269 100.355 346.418 99.6347 346.717 99.032C347.016 98.4293 347.424 97.968 347.941 97.648C348.464 97.3227 349.058 97.16 349.725 97.16C350.306 97.16 350.802 97.2773 351.213 97.512C351.624 97.7467 351.954 98.064 352.205 98.464C352.456 98.864 352.629 99.3173 352.725 99.824C352.826 100.325 352.856 100.845 352.813 101.384H347.277V100.616H351.989L351.621 100.856C351.637 100.541 351.618 100.227 351.565 99.912C351.517 99.5973 351.424 99.3093 351.285 99.048C351.146 98.7813 350.952 98.568 350.701 98.408C350.45 98.248 350.13 98.168 349.741 98.168C349.25 98.168 348.84 98.2933 348.509 98.544C348.178 98.7947 347.93 99.1253 347.765 99.536C347.6 99.9413 347.517 100.381 347.517 100.856V101.368C347.517 101.901 347.597 102.379 347.757 102.8C347.922 103.221 348.168 103.555 348.493 103.8C348.818 104.045 349.229 104.168 349.725 104.168C350.221 104.168 350.629 104.048 350.949 103.808C351.269 103.568 351.464 103.213 351.533 102.744H352.829C352.749 103.251 352.568 103.688 352.285 104.056C352.002 104.419 351.642 104.699 351.205 104.896C350.768 105.093 350.274 105.192 349.725 105.192ZM361.821 105.192C361.202 105.192 360.634 105.027 360.117 104.696C359.599 104.36 359.186 103.891 358.877 103.288C358.567 102.68 358.413 101.965 358.413 101.144C358.413 100.328 358.565 99.6213 358.869 99.024C359.173 98.4267 359.575 97.968 360.077 97.648C360.583 97.3227 361.138 97.16 361.741 97.16C362.301 97.16 362.791 97.296 363.213 97.568C363.639 97.84 363.97 98.232 364.205 98.744C364.439 99.256 364.557 99.8747 364.557 100.6H364.077C364.077 100.093 363.975 99.6667 363.773 99.32C363.575 98.9733 363.317 98.712 362.997 98.536C362.677 98.3547 362.333 98.264 361.965 98.264C361.549 98.264 361.167 98.3813 360.821 98.616C360.479 98.8453 360.205 99.176 359.997 99.608C359.794 100.035 359.693 100.547 359.693 101.144C359.693 101.752 359.794 102.275 359.997 102.712C360.205 103.149 360.479 103.485 360.821 103.72C361.167 103.955 361.549 104.072 361.965 104.072C362.311 104.072 362.645 103.981 362.965 103.8C363.29 103.619 363.557 103.355 363.765 103.008C363.973 102.656 364.077 102.232 364.077 101.736H364.557C364.557 102.477 364.434 103.107 364.189 103.624C363.949 104.136 363.621 104.525 363.205 104.792C362.794 105.059 362.333 105.192 361.821 105.192ZM364.285 105L364.077 103.208V94.088H365.325V105H364.285ZM371.337 105.192C370.649 105.192 370.036 105.04 369.497 104.736C368.964 104.432 368.542 103.981 368.233 103.384C367.924 102.787 367.769 102.051 367.769 101.176C367.769 100.296 367.924 99.56 368.233 98.968C368.542 98.3707 368.964 97.92 369.497 97.616C370.036 97.312 370.649 97.16 371.337 97.16C372.02 97.16 372.628 97.312 373.161 97.616C373.7 97.92 374.121 98.3707 374.425 98.968C374.734 99.56 374.889 100.296 374.889 101.176C374.889 102.051 374.734 102.787 374.425 103.384C374.121 103.981 373.7 104.432 373.161 104.736C372.628 105.04 372.02 105.192 371.337 105.192ZM371.305 104.104C371.801 104.104 372.222 103.987 372.569 103.752C372.916 103.512 373.177 103.173 373.353 102.736C373.534 102.299 373.625 101.779 373.625 101.176C373.625 100.264 373.436 99.5467 373.057 99.024C372.678 98.496 372.116 98.232 371.369 98.232C370.868 98.232 370.444 98.352 370.097 98.592C369.756 98.8267 369.494 99.1653 369.313 99.608C369.137 100.045 369.049 100.568 369.049 101.176C369.049 102.077 369.238 102.792 369.617 103.32C370.001 103.843 370.564 104.104 371.305 104.104ZM378.023 95.544C377.767 95.544 377.564 95.472 377.415 95.328C377.266 95.1787 377.191 94.984 377.191 94.744C377.191 94.5093 377.266 94.3227 377.415 94.184C377.564 94.0453 377.767 93.976 378.023 93.976C378.279 93.976 378.482 94.0453 378.631 94.184C378.78 94.3227 378.855 94.5093 378.855 94.744C378.855 94.984 378.78 95.1787 378.631 95.328C378.482 95.472 378.279 95.544 378.023 95.544ZM377.399 105V97.336H378.647V105H377.399ZM387.525 105V100.504C387.525 99.7733 387.349 99.2187 386.997 98.84C386.65 98.456 386.175 98.264 385.573 98.264C385.114 98.264 384.717 98.3893 384.381 98.64C384.045 98.8907 383.786 99.2507 383.605 99.72C383.423 100.184 383.333 100.739 383.333 101.384H382.853C382.853 100.493 382.97 99.7333 383.205 99.104C383.439 98.4747 383.781 97.9947 384.229 97.664C384.682 97.328 385.231 97.16 385.877 97.16C386.479 97.16 386.994 97.296 387.421 97.568C387.853 97.8347 388.183 98.2187 388.413 98.72C388.642 99.2213 388.757 99.816 388.757 100.504V105H387.525ZM382.085 105V97.352H383.157L383.333 99.112V105H382.085ZM394.445 108.936C393.661 108.936 392.981 108.824 392.405 108.6C391.829 108.381 391.381 108.085 391.061 107.712C390.746 107.344 390.589 106.936 390.589 106.488C390.589 105.896 390.805 105.443 391.237 105.128C391.674 104.819 392.237 104.664 392.925 104.664L393.613 105.096C393.037 105.096 392.592 105.216 392.277 105.456C391.962 105.696 391.805 106.024 391.805 106.44C391.805 106.856 392.029 107.208 392.477 107.496C392.925 107.784 393.581 107.928 394.445 107.928C395.085 107.928 395.645 107.835 396.125 107.648C396.61 107.467 396.986 107.227 397.253 106.928C397.525 106.635 397.661 106.317 397.661 105.976C397.661 105.736 397.573 105.528 397.397 105.352C397.221 105.181 396.952 105.096 396.589 105.096H393.613C393.096 105.096 392.648 105.019 392.269 104.864C391.896 104.704 391.608 104.496 391.405 104.24C391.202 103.984 391.101 103.704 391.101 103.4C391.101 103.08 391.192 102.808 391.373 102.584C391.554 102.36 391.789 102.189 392.077 102.072C392.37 101.955 392.685 101.896 393.021 101.896L393.261 102.36C393.101 102.36 392.938 102.397 392.773 102.472C392.613 102.541 392.477 102.648 392.365 102.792C392.258 102.931 392.205 103.107 392.205 103.32C392.205 103.565 392.306 103.771 392.509 103.936C392.712 104.101 393.08 104.184 393.613 104.184H396.589C397.309 104.184 397.874 104.336 398.285 104.64C398.701 104.944 398.909 105.368 398.909 105.912C398.909 106.413 398.73 106.893 398.373 107.352C398.016 107.816 397.504 108.195 396.837 108.488C396.17 108.787 395.373 108.936 394.445 108.936ZM394.669 102.76C394.082 102.76 393.552 102.643 393.077 102.408C392.608 102.173 392.234 101.845 391.957 101.424C391.685 101.003 391.549 100.515 391.549 99.96C391.549 99.4 391.685 98.9093 391.957 98.488C392.234 98.0667 392.608 97.7413 393.077 97.512C393.552 97.2773 394.082 97.16 394.669 97.16C395.24 97.16 395.757 97.2773 396.221 97.512C396.69 97.7413 397.064 98.0667 397.341 98.488C397.618 98.9093 397.757 99.4 397.757 99.96C397.757 100.515 397.618 101.003 397.341 101.424C397.064 101.845 396.69 102.173 396.221 102.408C395.757 102.643 395.24 102.76 394.669 102.76ZM394.669 101.864C395.256 101.864 395.712 101.683 396.037 101.32C396.362 100.957 396.525 100.504 396.525 99.96C396.525 99.4 396.362 98.9467 396.037 98.6C395.712 98.248 395.256 98.072 394.669 98.072C394.088 98.072 393.629 98.248 393.293 98.6C392.962 98.9467 392.797 99.4 392.797 99.96C392.797 100.504 392.962 100.957 393.293 101.32C393.629 101.683 394.088 101.864 394.669 101.864ZM397.181 98.376L396.589 98.136C396.589 97.688 396.677 97.296 396.853 96.96C397.029 96.6187 397.28 96.3547 397.605 96.168C397.93 95.976 398.317 95.88 398.765 95.88L398.669 97.112C398.189 97.112 397.821 97.216 397.565 97.424C397.309 97.6267 397.181 97.944 397.181 98.376Z" fill="white"/>
</svg>
